<svg width="50" height="47" viewBox="0 0 50 47" fill="none" xmlns="http://www.w3.org/2000/svg">
<path d="M25 13.2188C24.08 13.234 23.1668 13.3885 22.2882 13.6777C22.6946 14.4335 22.911 15.2868 22.9167 16.1562C22.9167 16.8313 22.7909 17.4998 22.5466 18.1235C22.3024 18.7472 21.9443 19.3139 21.4929 19.7912C21.0415 20.2686 20.5056 20.6472 19.9158 20.9056C19.3261 21.1639 18.6939 21.2969 18.0556 21.2969C17.2334 21.2908 16.4265 21.062 15.7118 20.6323C15.148 22.7003 15.2137 24.9034 15.8997 26.9298C16.5857 28.9561 17.8571 30.7027 19.534 31.9224C21.2109 33.1421 23.2081 33.7729 25.2429 33.7255C27.2776 33.6781 29.2466 32.9549 30.8711 31.6583C32.4955 30.3617 33.693 28.5575 34.294 26.5012C34.8949 24.4449 34.8688 22.2408 34.2194 20.2011C33.5699 18.1613 32.3301 16.3894 30.6754 15.1363C29.0208 13.8831 27.0352 13.2123 25 13.2188ZM49.6979 22.1598C44.9905 12.4467 35.671 5.875 25 5.875C14.329 5.875 5.00696 12.4513 0.302097 22.1607C0.103522 22.5761 6.10352e-05 23.035 6.10352e-05 23.5005C6.10352e-05 23.9659 0.103522 24.4248 0.302097 24.8402C5.00956 34.5533 14.329 41.125 25 41.125C35.671 41.125 44.9931 34.5487 49.6979 24.8393C49.8965 24.4239 50 23.965 50 23.4995C50 23.0341 49.8965 22.5752 49.6979 22.1598ZM25 36.7188C16.4366 36.7188 8.58595 31.6699 4.34637 23.5C8.58595 15.3301 16.4358 10.2812 25 10.2812C33.5643 10.2812 41.4141 15.3301 45.6537 23.5C41.4149 31.6699 33.5643 36.7188 25 36.7188Z" fill="white"/>
</svg>
